<?xml version="1.0" standalone="no"?>
<!DOCTYPE svg PUBLIC "-//W3C//DTD SVG 20010904//EN"
 "http://www.w3.org/TR/2001/REC-SVG-20010904/DTD/svg10.dtd">
<svg version="1.0" xmlns="http://www.w3.org/2000/svg"
 width="512.000000pt" height="512.000000pt" viewBox="0 0 512.000000 512.000000"
 preserveAspectRatio="xMidYMid meet">
<metadata>
Created by potrace 1.11, written by Peter Selinger 2001-2013
</metadata>
<g transform="translate(0.000000,512.000000) scale(0.100000,-0.100000)"
fill="#000000" stroke="none">
<path d="M1485 3670 c-85 -13 -108 -17 -170 -34 -441 -117 -750 -477 -792
-920 -59 -624 281 -1099 874 -1221 255 -53 541 -33 793 53 l55 19 -1 49 c-1
47 -10 169 -19 264 -2 25 -7 81 -11 125 -3 44 -8 82 -9 83 -2 2 -45 -13 -97
-33 -101 -40 -208 -75 -208 -69 0 3 -8 0 -19 -5 -17 -10 -141 -24 -206 -25
-348 -1 -618 273 -618 629 1 256 114 451 320 551 101 49 175 63 318 60 106 -3
129 -7 195 -33 41 -16 122 -57 180 -91 57 -33 106 -59 108 -57 6 5 8 30 17
143 3 48 8 98 10 112 2 14 6 66 10 115 4 50 8 107 10 128 3 32 0 39 -18 46
-13 5 -43 18 -67 29 -129 59 -258 84 -450 87 -85 1 -177 -1 -205 -5z"/>
<path d="M2393 3654 c-2 -6 36 -116 86 -245 49 -129 131 -342 181 -474 50
-132 152 -400 227 -595 74 -195 148 -389 164 -430 16 -41 60 -156 97 -255 l69
-180 253 0 253 0 28 70 c15 39 31 79 34 90 4 11 9 25 10 30 9 25 247 654 260
685 24 59 484 1284 487 1299 2 11 -44 13 -265 13 -148 1 -272 -3 -277 -8 -8
-8 -88 -218 -122 -319 -5 -16 -13 -39 -18 -50 -26 -67 -48 -125 -130 -350 -50
-137 -100 -272 -111 -300 -10 -27 -46 -126 -80 -218 -34 -92 -64 -166 -66
-164 -4 5 -25 60 -70 182 -14 39 -68 185 -120 325 -52 140 -113 305 -135 365
-22 61 -46 124 -54 142 -8 17 -14 34 -14 39 0 4 -14 44 -31 88 -17 45 -42 110
-56 146 -14 36 -26 70 -27 75 -1 6 -7 18 -12 29 -10 17 -29 19 -284 20 -188 1
-274 -2 -277 -10z"/>
</g>
</svg>
